[Header]
FileType HTR
DataType HTRS
FileVersion 1
NumSegments 64
NumFrames 3
DataFrameRate 24
EulerRotationOrder ZYX
CalibrationUnits mm
RotationUnits Degrees
GlobalAxisofGravity Y
BoneLengthAxis Y
ScaleFactor 1.0
[SegmentNames&Hierarchy]
Hips	GLOBAL
Spine	Hips
Spine1	Spine
Spine2	Spine1
Neck	Spine2
Head	Neck
LeftEye	Head
RightEye	Head
LeftShoulder	Spine2
LeftArm	LeftShoulder
LeftForeArm	LeftArm
LeftHand	LeftForeArm
LeftHandThumb1	LeftHand
LeftHandThumb2	LeftHandThumb1
LeftHandThumb3	LeftHandThumb2
LeftHandThumb4	LeftHandThumb3
LeftHandIndex1	LeftHand
LeftHandIndex2	LeftHandIndex1
LeftHandIndex3	LeftHandIndex2
LeftHandIndex4	LeftHandIndex3
LeftHandMiddle1	LeftHand
LeftHandMiddle2	LeftHandMiddle1
LeftHandMiddle3	LeftHandMiddle2
LeftHandMiddle4	LeftHandMiddle3
LeftHandRing1	LeftHand
LeftHandRing2	LeftHandRing1
LeftHandRing3	LeftHandRing2
LeftHandRing4	LeftHandRing3
LeftHandPinky1	LeftHand
LeftHandPinky2	LeftHandPinky1
LeftHandPinky3	LeftHandPinky2
LeftHandPinky4	LeftHandPinky3
RightShoulder	Spine2
RightArm	RightShoulder
RightForeArm	RightArm
RightHand	RightForeArm
RightHandPinky1	RightHand
RightHandPinky2	RightHandPinky1
RightHandPinky3	RightHandPinky2
RightHandPinky4	RightHandPinky3
RightHandRing1	RightHand
RightHandRing2	RightHandRing1
RightHandRing3	RightHandRing2
RightHandRing4	RightHandRing3
RightHandMiddle1	RightHand
RightHandMiddle2	RightHandMiddle1
RightHandMiddle3	RightHandMiddle2
RightHandMiddle4	RightHandMiddle3
RightHandIndex1	RightHand
RightHandIndex2	RightHandIndex1
RightHandIndex3	RightHandIndex2
RightHandIndex4	RightHandIndex3
RightHandThumb1	RightHand
RightHandThumb2	RightHandThumb1
RightHandThumb3	RightHandThumb2
RightHandThumb4	RightHandThumb3
LeftUpLeg	Hips
LeftLeg	LeftUpLeg
LeftFoot	LeftLeg
LeftToeBase	LeftFoot
RightUpLeg	Hips
RightLeg	RightUpLeg
RightFoot	RightLeg
RightToeBase	RightFoot
[BasePosition]
Hips	0	0	0	0	0	0	1
Spine	0	0	0	0	0	0	1
Spine1	0	0	0	0	0	0	1
Spine2	0	0	0	0	0	0	1
Neck	0	0	0	0	0	0	1
Head	0	0	0	0	0	0	1
LeftEye	0	0	0	0	0	0	1
RightEye	0	0	0	0	0	0	1
LeftShoulder	0	0	0	0	0	0	1
LeftArm	0	0	0	0	0	0	1
LeftForeArm	0	0	0	0	0	0	1
LeftHand	0	0	0	0	0	0	1
LeftHandThumb1	0	0	0	0	0	0	1
LeftHandThumb2	0	0	0	0	0	0	1
LeftHandThumb3	0	0	0	0	0	0	1
LeftHandThumb4	0	0	0	0	0	0	1
LeftHandIndex1	0	0	0	0	0	0	1
LeftHandIndex2	0	0	0	0	0	0	1
LeftHandIndex3	0	0	0	0	0	0	1
LeftHandIndex4	0	0	0	0	0	0	1
LeftHandMiddle1	0	0	0	0	0	0	1
LeftHandMiddle2	0	0	0	0	0	0	1
LeftHandMiddle3	0	0	0	0	0	0	1
LeftHandMiddle4	0	0	0	0	0	0	1
LeftHandRing1	0	0	0	0	0	0	1
LeftHandRing2	0	0	0	0	0	0	1
LeftHandRing3	0	0	0	0	0	0	1
LeftHandRing4	0	0	0	0	0	0	1
LeftHandPinky1	0	0	0	0	0	0	1
LeftHandPinky2	0	0	0	0	0	0	1
LeftHandPinky3	0	0	0	0	0	0	1
LeftHandPinky4	0	0	0	0	0	0	1
RightShoulder	0	0	0	0	0	0	1
RightArm	0	0	0	0	0	0	1
RightForeArm	0	0	0	0	0	0	1
RightHand	0	0	0	0	0	0	1
RightHandPinky1	0	0	0	0	0	0	1
RightHandPinky2	0	0	0	0	0	0	1
RightHandPinky3	0	0	0	0	0	0	1
RightHandPinky4	0	0	0	0	0	0	1
RightHandRing1	0	0	0	0	0	0	1
RightHandRing2	0	0	0	0	0	0	1
RightHandRing3	0	0	0	0	0	0	1
RightHandRing4	0	0	0	0	0	0	1
RightHandMiddle1	0	0	0	0	0	0	1
RightHandMiddle2	0	0	0	0	0	0	1
RightHandMiddle3	0	0	0	0	0	0	1
RightHandMiddle4	0	0	0	0	0	0	1
RightHandIndex1	0	0	0	0	0	0	1
RightHandIndex2	0	0	0	0	0	0	1
RightHandIndex3	0	0	0	0	0	0	1
RightHandIndex4	0	0	0	0	0	0	1
RightHandThumb1	0	0	0	0	0	0	1
RightHandThumb2	0	0	0	0	0	0	1
RightHandThumb3	0	0	0	0	0	0	1
RightHandThumb4	0	0	0	0	0	0	1
LeftUpLeg	0	0	0	0	0	0	1
LeftLeg	0	0	0	0	0	0	1
LeftFoot	0	0	0	0	0	0	1
LeftToeBase	0	0	0	0	0	0	1
RightUpLeg	0	0	0	0	0	0	1
RightLeg	0	0	0	0	0	0	1
RightFoot	0	0	0	0	0	0	1
RightToeBase	0	0	0	0	0	0	1
[Hips]
21	1.734008789	1029.633179	-20.17904282	75.67848969	-87.82502747	-79.88104248	1.0
22	-8.790167809	1032.293579	-6.645286083	138.1700287	-85.26445007	-141.9789581	1.0
23	-14.23910522	1033.918945	1.201203823	148.1123047	-82.81044769	-151.6679077	1.0
[Spine]
21	0	101.8159943	1.315000057	3.915309668	0.8262200952	3.667521238	1.0
22	0	101.8159943	1.315000057	3.592393637	1.175984621	3.17330718	1.0
23	0	101.8159943	1.315000057	3.367697477	1.381904483	2.807883263	1.0
[Spine1]
21	0	100.8349991	-10.00800037	1.494101405	0.4733125269	-0.0289783366	1.0
22	0	100.8349991	-10.00800037	1.302391529	0.4578866661	1.030205488	1.0
23	0	100.8349991	-10.00800037	1.160681844	0.3080450892	1.559331059	1.0
[Spine2]
21	0	91	-13.73399925	1.503476501	0.5317255855	0.6006102562	1.0
22	0	91	-13.73399925	1.289473891	0.492126286	1.239691496	1.0
23	0	91	-13.73399925	1.135434151	0.3307498097	1.562716126	1.0
[Neck]
21	0	166.7169952	-25.16200066	5.668813229	-0.559279263	-0.08407605439	1.0
22	0	166.7169952	-25.16200066	5.656533718	-0.2688214481	0.2266069651	1.0
23	0	166.7169952	-25.16200066	5.625522137	-0.1231399104	0.4447541535	1.0
[Head]
21	0	96.17900085	16.84999847	-6.735355854	-2.292957783	1.292291164	1.0
22	0	96.17900085	16.84999847	-7.220059395	0.03823933378	0.3458134234	1.0
23	0	96.17900085	16.84999847	-7.567393303	1.35313344	-0.2609969079	1.0
[LeftEye]
21	30.6760006	64.09500122	92.83599854	0	0	0	1.0
22	30.6760006	64.09500122	92.83599854	0	0	0	1.0
23	30.6760006	64.09500122	92.83599854	0	0	0	1.0
[RightEye]
21	-30.6760006	64.09500122	92.83499908	0	0	0	1.0
22	-30.6760006	64.09500122	92.83499908	0	0	0	1.0
23	-30.6760006	64.09500122	92.83499908	0	0	0	1.0
[LeftShoulder]
21	45.70400238	109.4599991	-26.28000069	5.051521301	-17.69476128	-16.41559792	1.0
22	45.70400238	109.4599991	-26.28000069	5.243227005	-19.03872871	-17.22768593	1.0
23	45.70400238	109.4599991	-26.28000069	5.396415234	-19.55941963	-17.70214081	1.0
[LeftArm]
21	105.923996	-5.24600029	-22.32099915	14.86313725	-1.744420171	-65.88306427	1.0
22	105.923996	-5.24600029	-22.32099915	16.22690964	-1.27624023	-66.71046448	1.0
23	105.923996	-5.24600029	-22.32099915	17.16713905	-1.022717714	-66.93126678	1.0
[LeftForeArm]
21	278.414978	-0.0009999999311	0	-1.886553605e-06	-2.899049044	-0.0002017517691	1.0
22	278.414978	-0.0009999999311	0	-5.005681032e-06	-1.989950299	-0.0002146557672	1.0
23	278.414978	-0.0009999999311	0	3.940561299e-08	-1.459365606	-0.0001884224039	1.0
[LeftHand]
21	283.2879944	0	0	-30.59409332	-3.823190689	-4.520076752	1.0
22	283.2879944	0	0	-31.99085808	-4.392795563	-4.498830795	1.0
23	283.2879944	0	0	-32.95536423	-4.523313046	-4.439664364	1.0
[LeftHandThumb1]
21	24.6609993	-15.75	26.8239994	-0.4889863729	2.201392412	4.818544865	1.0
22	24.6609993	-15.75	26.8239994	-0.4889863729	2.201392412	4.818544865	1.0
23	24.6609993	-15.75	26.8239994	-0.4889863729	2.201392412	4.818544865	1.0
[LeftHandThumb2]
21	32.29800034	-18.64699936	18.64699936	20.57950401	18.80632973	22.70239067	1.0
22	32.29800034	-18.64699936	18.64699936	20.20213127	19.45430946	23.01114273	1.0
23	32.29800034	-18.64699936	18.64699936	19.88580704	19.96444321	23.26738358	1.0
[LeftHandThumb3]
21	26.52600098	-15.31499958	15.31499958	-13.1224041	5.452553272	8.017782211	1.0
22	26.52600098	-15.31499958	15.31499958	-13.10939789	5.497964859	7.989019871	1.0
23	26.52600098	-15.31499958	15.31499958	-13.09529781	5.530992508	7.979804039	1.0
[LeftHandThumb4]
21	19.54599953	-11.28499985	11.28499985	0	0	0	1.0
22	19.54599953	-11.28499985	11.28499985	0	0	0	1.0
23	19.54599953	-11.28499985	11.28499985	0	0	0	1.0
[LeftHandIndex1]
21	91.09299469	-5.170999527	22.60099792	-0.01374517195	-0.8935998678	-9.427958488	1.0
22	91.09299469	-5.170999527	22.60099792	0.06640339643	-0.9411225915	-8.454734802	1.0
23	91.09299469	-5.170999527	22.60099792	0.1480600983	-0.9618863463	-7.594498158	1.0
[LeftHandIndex2]
21	36.76399994	0	0	-0.2666116357	1.744859695	-17.37317848	1.0
22	36.76399994	0	0	-0.2666074336	1.744859815	-17.37317085	1.0
23	36.76399994	0	0	-0.2666060925	1.744845152	-17.3731842	1.0
[LeftHandIndex3]
21	28.83100128	0	0	-0.05737656727	0.8169975281	-8.035093307	1.0
22	28.83100128	0	0	-0.05737049878	0.8169882298	-8.035074234	1.0
23	28.83100128	0	0	-0.05738701671	0.8170024753	-8.035069466	1.0
[LeftHandIndex4]
21	23.92700005	0	0	0	0	0	1.0
22	23.92700005	0	0	0	0	0	1.0
23	23.92700005	0	0	0	0	0	1.0
[LeftHandMiddle1]
21	95.33399963	0	0	-0.8483692408	2.72268939	-16.50814629	1.0
22	95.33399963	0	0	-0.8215111494	2.619175196	-16.11761856	1.0
23	95.33399963	0	0	-0.7942772508	2.538631201	-15.71738052	1.0
[LeftHandMiddle2]
21	36.98199844	0	0	-0.2702041566	1.756301999	-17.49105835	1.0
22	36.98199844	0	0	-0.2689821422	1.752463937	-17.45124817	1.0
23	36.98199844	0	0	-0.2676083744	1.748048306	-17.40627861	1.0
[LeftHandMiddle3]
21	29.50900078	0	0	-0.3019280434	1.853951573	-18.49821091	1.0
22	29.50900078	0	0	-0.3006538451	1.850134373	-18.45882416	1.0
23	29.50900078	0	0	-0.2992100716	1.845824838	-18.41413307	1.0
[LeftHandMiddle4]
21	28.3390007	0	0	0	0	0	1.0
22	28.3390007	0	0	0	0	0	1.0
23	28.3390007	0	0	0	0	0	1.0
[LeftHandRing1]
21	91.04499817	-0.4390000105	-18.65100098	-1.293789506	3.126022577	-22.59720612	1.0
22	91.04499817	-0.4390000105	-18.65100098	-1.236461163	3.287049294	-21.84649467	1.0
23	91.04499817	-0.4390000105	-18.65100098	-1.184951663	3.436641455	-21.16631126	1.0
[LeftHandRing2]
21	31.54000092	0	0	-0.3857731223	2.087755919	-20.93572426	1.0
22	31.54000092	0	0	-0.385537684	2.087150574	-20.92934418	1.0
23	31.54000092	0	0	-0.3849288821	2.085547209	-20.91278267	1.0
[LeftHandRing3]
21	29.37700081	0	0	-0.2825419307	1.794996977	-17.88943291	1.0
22	29.37700081	0	0	-0.2823344171	1.794339299	-17.88268089	1.0
23	29.37700081	0	0	-0.281807512	1.792718172	-17.86577797	1.0
[LeftHandRing4]
21	26.47500038	0	0	0	0	0	1.0
22	26.47500038	0	0	0	0	0	1.0
23	26.47500038	0	0	0	0	0	1.0
[LeftHandPinky1]
21	80.77799988	-4.887000084	-38.06099701	-2.025380135	4.35807848	-28.59018326	1.0
22	80.77799988	-4.887000084	-38.06099701	-1.859655023	4.886363506	-27.85510826	1.0
23	80.77799988	-4.887000084	-38.06099701	-1.708467245	5.355365276	-27.16538811	1.0
[LeftHandPinky2]
21	36	0	0	-0.2679916918	1.749305606	-17.41898155	1.0
22	36	0	0	-0.2679864764	1.749281049	-17.4189682	1.0
23	36	0	0	-0.2679930031	1.749329209	-17.41897011	1.0
[LeftHandPinky3]
21	21.14200211	0	0	-0.2399502695	1.6573174	-16.47535324	1.0
22	21.14200211	0	0	-0.2402898222	1.658444524	-16.48699379	1.0
23	21.14200211	0	0	-0.2408491373	1.660350561	-16.50660706	1.0
[LeftHandPinky4]
21	19.75699997	0	0	0	0	0	1.0
22	19.75699997	0	0	0	0	0	1.0
23	19.75699997	0	0	0	0	0	1.0
[RightShoulder]
21	-45.70000076	109.4620056	-26.28000069	4.604943275	14.76399803	11.95979309	1.0
22	-45.70000076	109.4620056	-26.28000069	4.757574558	12.71059227	10.54440117	1.0
23	-45.70000076	109.4620056	-26.28000069	4.874132633	11.39120388	9.725038528	1.0
[RightArm]
21	-105.9280014	-5.248000145	-22.32099915	25.43767738	-0.08794160932	66.74508667	1.0
22	-105.9280014	-5.248000145	-22.32099915	30.67500305	2.858969212	67.42058563	1.0
23	-105.9280014	-5.248000145	-22.32099915	33.45955658	4.713521957	68.14775085	1.0
[RightForeArm]
21	-278.414978	0	0	2.602507493e-06	8.676273346	1.968383003e-05	1.0
22	-278.414978	0	0	1.726488222e-06	7.452706337	-5.802045507e-06	1.0
23	-278.414978	0	0	-2.290871407e-06	6.693516731	1.044616397e-06	1.0
[RightHand]
21	-283.2879944	0	0.0009999999311	-20.04447937	0.5139256716	0.1122300848	1.0
22	-283.2879944	0	0.0009999999311	-20.31983185	1.26678431	4.319346428	1.0
23	-283.2879944	0	0.0009999999311	-20.0767746	1.855683684	6.545358181	1.0
[RightHandPinky1]
21	-80.76699829	-4.885000229	-38.06000137	-1.442374825	-4.902348518	25.86694908	1.0
22	-80.76699829	-4.885000229	-38.06000137	-1.469193101	-4.760489941	26.22611618	1.0
23	-80.76699829	-4.885000229	-38.06000137	-1.489362478	-4.696129799	26.50607491	1.0
[RightHandPinky2]
21	-36	0	0.0009999999311	-0.2109828442	-1.383185506	17.36430168	1.0
22	-36	0	0.0009999999311	-0.2119483799	-1.386257887	17.4040699	1.0
23	-36	0	0.0009999999311	-0.2127612233	-1.388844728	17.43762589	1.0
[RightHandPinky3]
21	-21.14200211	0	0	-0.1902564913	-1.314996719	16.46406555	1.0
22	-21.14200211	0	0	-0.1911546886	-1.318018198	16.50320435	1.0
23	-21.14200211	0	0	-0.1919129342	-1.320615172	16.5364151	1.0
[RightHandPinky4]
21	-19.75699997	0	0	0	0	0	1.0
22	-19.75699997	0	0	0	0	0	1.0
23	-19.75699997	0	0	0	0	0	1.0
[RightHandRing1]
21	-91.03599548	-0.4390000105	-18.65100098	-1.002263665	-2.462842464	19.82875443	1.0
22	-91.03599548	-0.4390000105	-18.65100098	-1.024465799	-2.695626497	20.16501999	1.0
23	-91.03599548	-0.4390000105	-18.65100098	-1.04524374	-2.883106232	20.47788048	1.0
[RightHandRing2]
21	-31.54000092	0	0	-0.3030162752	-1.649132967	20.82181931	1.0
22	-31.54000092	0	0	-0.3050726652	-1.654515862	20.89324951	1.0
23	-31.54000092	0	0	-0.3066895008	-1.658745646	20.94926262	1.0
[RightHandRing3]
21	-29.37700081	0	0	-0.2214393467	-1.416223168	17.77280426	1.0
22	-29.37700081	0	0	-0.2231767923	-1.421638966	17.84284019	1.0
23	-29.37700081	0	0	-0.2245449126	-1.425861239	17.89771652	1.0
[RightHandRing4]
21	-26.47500038	0	0	0	0	0	1.0
22	-26.47500038	0	0	0	0	0	1.0
23	-26.47500038	0	0	0	0	0	1.0
[RightHandMiddle1]
21	-95.32500458	0	0	-0.6412550211	-2.130607367	13.98746967	1.0
22	-95.32500458	0	0	-0.6738607287	-2.100296736	14.54456997	1.0
23	-95.32500458	0	0	-0.701726079	-2.087735176	15.01526642	1.0
[RightHandMiddle2]
21	-36.98199844	0	0	-0.2101600021	-1.380580902	17.31076241	1.0
22	-36.98199844	0	0	-0.2117944211	-1.385766029	17.37825584	1.0
23	-36.98199844	0	0	-0.2132343203	-1.390385747	17.43751335	1.0
[RightHandMiddle3]
21	-29.50900078	0	0	-0.2351561636	-1.460323811	18.31954002	1.0
22	-29.50900078	0	0	-0.2368894815	-1.465543032	18.38743782	1.0
23	-29.50900078	0	0	-0.2384026051	-1.470104098	18.44691849	1.0
[RightHandMiddle4]
21	-28.3390007	0	0.0009999999311	0	0	0	1.0
22	-28.3390007	0	0.0009999999311	0	0	0	1.0
23	-28.3390007	0	0.0009999999311	0	0	0	1.0
[RightHandIndex1]
21	-91.08300018	-5.167999744	22.60099792	0.1065580621	1.608130693	5.759830475	1.0
22	-91.08300018	-5.167999744	22.60099792	0.1554006934	1.407715678	6.329665661	1.0
23	-91.08300018	-5.167999744	22.60099792	0.1884685606	1.251924396	6.825637341	1.0
[RightHandIndex2]
21	-36.76399994	0	0	-0.2128212899	-1.389047861	17.42072105	1.0
22	-36.76399994	0	0	-0.2128282636	-1.389068007	17.42072868	1.0
23	-36.76399994	0	0	-0.2128172815	-1.389045596	17.42070961	1.0
[RightHandIndex3]
21	-28.83100128	0	0	-0.04592248425	-0.6511682868	8.066608429	1.0
22	-28.83100128	0	0	-0.04591019452	-0.6511629224	8.066592216	1.0
23	-28.83100128	0	0	-0.04591577873	-0.6511731148	8.066605568	1.0
[RightHandIndex4]
21	-23.92700005	0	0	0	0	0	1.0
22	-23.92700005	0	0	0	0	0	1.0
23	-23.92700005	0	0	0	0	0	1.0
[RightHandThumb1]
21	-24.64799881	-15.72700024	26.82600021	-1.658462644	-0.289145112	-4.221315384	1.0
22	-24.64799881	-15.72700024	26.82600021	-1.658462644	-0.289145112	-4.221315384	1.0
23	-24.64799881	-15.72700024	26.82600021	-1.658462644	-0.289145112	-4.221315384	1.0
[RightHandThumb2]
21	-32.29800034	-18.64699936	18.64699936	19.38631248	-21.35212708	-22.26224327	1.0
22	-32.29800034	-18.64699936	18.64699936	20.95352364	-22.78717422	-23.37489128	1.0
23	-32.29800034	-18.64699936	18.64699936	22.25258064	-23.88967323	-24.28244209	1.0
[RightHandThumb3]
21	-26.52600098	-15.31399918	15.31399918	-14.24366093	-7.780287743	-10.90932751	1.0
22	-26.52600098	-15.31399918	15.31399918	-14.37183475	-7.205877781	-11.16352558	1.0
23	-26.52600098	-15.31399918	15.31399918	-14.47828579	-6.743865013	-11.36568832	1.0
[RightHandThumb4]
21	-19.54599953	-11.28499985	11.28499985	0	0	0	1.0
22	-19.54599953	-11.28499985	11.28499985	0	0	0	1.0
23	-19.54599953	-11.28499985	11.28499985	0	0	0	1.0
[LeftUpLeg]
21	82.07800293	-67.51699829	-15.99599934	-9.309454918	15.93936539	8.515319824	1.0
22	82.07800293	-67.51699829	-15.99599934	-8.794098854	15.99037361	7.985011578	1.0
23	82.07800293	-67.51699829	-15.99599934	-8.343751907	16.03670883	7.769799709	1.0
[LeftLeg]
21	0	-443.7049866	2.845999956	11.2993803	-4.179593563	-0.2349033207	1.0
22	0	-443.7049866	2.845999956	12.12047005	-0.6617541909	2.895195007	1.0
23	0	-443.7049866	2.845999956	12.32267475	1.658254623	4.596775055	1.0
[LeftFoot]
21	0	-444.2789917	-29.8219986	3.586448908	0.5338675976	-5.642999649	1.0
22	0	-444.2789917	-29.8219986	1.923551083	0.3905544281	-6.621095181	1.0
23	0	-444.2789917	-29.8219986	1.235634208	0.2963629663	-7.114869118	1.0
[LeftToeBase]
21	0	-87.28699493	107.1060028	-4.988434792	-1.18245498e-05	1.146972863e-06	1.0
22	0	-87.28699493	107.1060028	-4.983705997	3.160754204e-05	1.193696786e-08	1.0
23	0	-87.28699493	107.1060028	-4.98370409	-9.984203643e-06	-1.483295819e-06	1.0
[RightUpLeg]
21	-82.07800293	-67.51699829	-15.99599934	-2.907374144	-12.00991154	2.996012926	1.0
22	-82.07800293	-67.51699829	-15.99599934	-1.251354218	-10.92189598	3.313708067	1.0
23	-82.07800293	-67.51699829	-15.99599934	-0.03051888198	-10.35263252	3.461065769	1.0
[RightLeg]
21	0	-443.7049866	2.861999989	14.33297443	-9.093639374	-4.330199242	1.0
22	0	-443.7049866	2.861999989	10.80129814	-8.666899681	-4.47749567	1.0
23	0	-443.7049866	2.861999989	8.01850605	-7.773646355	-4.275725365	1.0
[RightFoot]
21	0	-444.2770081	-29.83799934	-7.212565422	-6.162345409	2.279169559	1.0
22	0	-444.2770081	-29.83799934	-5.350412846	-3.880386829	2.919887543	1.0
23	0	-444.2770081	-29.83799934	-3.86766839	-2.986398935	3.223123074	1.0
[RightToeBase]
21	0	-87.28699493	107.1060028	-6.670584679	2.442412188e-05	-2.477691396e-06	1.0
22	0	-87.28699493	107.1060028	-7.000586033	4.127044667e-05	-2.496907882e-06	1.0
23	0	-87.28699493	107.1060028	-7.252613068	-3.173084224e-06	1.572715746e-06	1.0
[EndOfFile]
